<svg preserveAspectRatio="none" overflow="visible" style="display: block;" width="16" height="16" viewBox="0 0 16 16" fill="none" xmlns="http://www.w3.org/2000/svg">
<g id="Icon / house">
<path id="Vector" d="M13.7069 6.7925L8.70687 1.7925C8.51936 1.60511 8.2651 1.49984 8 1.49984C7.7349 1.49984 7.48064 1.60511 7.29313 1.7925L2.29312 6.7925C2.19982 6.88512 2.12585 6.99536 2.07553 7.11682C2.02521 7.23828 1.99953 7.36853 2 7.5V13.5C2 13.6326 2.05268 13.7598 2.14645 13.8536C2.24021 13.9473 2.36739 14 2.5 14H6.5C6.63261 14 6.75979 13.9473 6.85355 13.8536C6.94732 13.7598 7 13.6326 7 13.5V10H9V13.5C9 13.6326 9.05268 13.7598 9.14645 13.8536C9.24021 13.9473 9.36739 14 9.5 14H13.5C13.6326 14 13.7598 13.9473 13.8536 13.8536C13.9473 13.7598 14 13.6326 14 13.5V7.5C14.0005 7.36853 13.9748 7.23828 13.9245 7.11682C13.8742 6.99536 13.8002 6.88512 13.7069 6.7925ZM13 13H10V9.5C10 9.36739 9.94732 9.24021 9.85355 9.14645C9.75979 9.05268 9.63261 9 9.5 9H6.5C6.36739 9 6.24021 9.05268 6.14645 9.14645C6.05268 9.24021 6 9.36739 6 9.5V13H3V7.5L8 2.5L13 7.5V13Z" fill="#8B8B89"/>
</g>
</svg>
